# xmcd CD database file
# Copyright (C) 1993-1998 Ti Kan
#
# Track frame offsets:
#	150
#	18225
#	36747
#	52862
#	74295
#	87132
#	106230
#	122177
#	141462
#	156510
#	177317
#	197462
#	216037
#
# Disc length: 3196 seconds
#
# Revision: 1
# Processed by: cddbd v1.4b41PL1 Copyright (c) Steve Scherf et al.
# Submitted via: xmcd 2.3 PL0
#
DISCID=b90c7a0d
DTITLE=Voodoo Kings - Voodoo Love
DYEAR=1900
DGENRE=
TTITLE0=Mojo Boogie
TTITLE1=Voodoo Love
TTITLE2=Still Alive and Well
TTITLE3=Big Thing
TTITLE4=She's My Baby
TTITLE5=Get Right with God
TTITLE6=Highway of Love
TTITLE7=Cold Cold Cold
TTITLE8=Save My Money
TTITLE9=Rescue Me
TTITLE10=Danger Danger
TTITLE11=I'm In Love
TTITLE12=Fly Away
EXTD=
EXTT0=
EXTT1=
EXTT2=
EXTT3=
EXTT4=
EXTT5=
EXTT6=
EXTT7=
EXTT8=
EXTT9=
EXTT10=
EXTT11=
EXTT12=
PLAYORDER=
